<?xml version="1.0" encoding="utf-8"?>
<!-- Generator: Adobe Illustrator 19.2.0, SVG Export Plug-In . SVG Version: 6.00 Build 0)  -->
<!DOCTYPE svg PUBLIC "-//W3C//DTD SVG 1.1//EN" "http://www.w3.org/Graphics/SVG/1.1/DTD/svg11.dtd">
<svg version="1.1" id="twitter" xmlns="http://www.w3.org/2000/svg" xmlns:xlink="http://www.w3.org/1999/xlink" x="0px" y="0px"
	 viewBox="0 0 96 96" style="enable-background:new 0 0 96 96;" xml:space="preserve">
<style type="text/css">
	.st0{fill:#49B3AB;}
	.st1{fill:#FFFFFF;}
</style>
<title>twitter</title>
<circle class="st0" cx="48" cy="48" r="48"/>
<path class="st1" d="M63.2,28H32.8c-2.6,0-4.8,2.1-4.8,4.8v30.5c0,2.6,2.1,4.8,4.8,4.8l0,0h30.5c2.6-0.1,4.7-2.2,4.8-4.8V32.8
	C68,30.1,65.9,28,63.2,28z M48,40.2c4.3,0,7.8,3.5,7.8,7.8s-3.5,7.8-7.8,7.8s-7.8-3.5-7.8-7.8S43.7,40.2,48,40.2z M63.2,62.2
	c0,0.5-0.5,1-1,1H33.5c-0.5,0-1-0.5-1-1V44.8h3.8c-0.3,1.1-0.5,2.2-0.5,3.2c0,6.8,5.5,12.2,12.2,12.2S60.2,54.8,60.2,48
	c0-1.1-0.3-2.2-0.8-3.2h3.8V62.2z M63.5,39.2c0,0.5-0.5,1-1,1H57c-0.8,0-1.2-0.5-1-1v-5.5c0-0.5,0.5-1,1-1h5.5c0.5,0,1,0.5,1,1V39.2
	z"/>
</svg>
